<?xml version="1.0" standalone="no"?>
<!DOCTYPE svg PUBLIC "-//W3C//DTD SVG 20010904//EN"
 "http://www.w3.org/TR/2001/REC-SVG-20010904/DTD/svg10.dtd">
<svg version="1.0" xmlns="http://www.w3.org/2000/svg"
 width="640.000000pt" height="401.000000pt" viewBox="0 0 640.000000 401.000000"
 preserveAspectRatio="xMidYMid meet">

<g transform="translate(0.000000,401.000000) scale(0.100000,-0.100000)"
fill="#000000" stroke="none">
<path d="M3047 3916 c-20 -7 -53 -26 -72 -40 -40 -31 -95 -120 -95 -154 0 -12
-6 -24 -12 -26 -7 -2 -33 -9 -58 -16 -84 -23 -150 -113 -150 -206 0 -43 26
-114 55 -146 42 -48 85 -68 148 -68 77 0 73 23 -5 31 -34 4 -68 15 -88 29 -36
25 -80 110 -80 153 0 68 64 157 128 178 21 7 58 9 93 5 65 -8 82 7 29 25 -33
12 -36 25 -17 72 23 53 68 99 124 124 96 42 171 26 251 -54 29 -29 58 -53 63
-53 38 0 -40 99 -105 132 -52 27 -157 34 -209 14z"/>
<path d="M3309 3724 c-52 -16 -78 -39 -62 -55 7 -7 21 -4 44 10 97 60 237 -8
263 -126 4 -17 21 -40 37 -52 44 -32 62 -82 49 -130 -16 -59 -41 -75 -124 -81
-54 -4 -71 -9 -71 -20 0 -12 13 -15 66 -14 87 2 125 23 150 80 31 68 18 126
-37 183 -24 24 -44 52 -44 61 0 25 -49 94 -84 118 -36 24 -89 42 -121 41 -11
0 -41 -7 -66 -15z"/>
<path d="M3136 3594 c-22 -22 -20 -71 4 -91 15 -13 20 -30 20 -65 0 -41 3 -48
20 -48 17 0 20 7 20 50 0 36 5 52 17 59 23 12 24 88 3 101 -23 15 -67 12 -84
-6z m69 -44 c0 -18 -6 -26 -23 -28 -13 -2 -25 3 -28 12 -10 26 4 48 28 44 17
-2 23 -10 23 -28z"/>
<path d="M2993 3473 c-8 -3 -13 -23 -13 -48 0 -34 5 -47 20 -55 16 -9 20 -21
20 -63 0 -46 4 -57 30 -82 17 -16 30 -39 30 -52 0 -14 6 -23 15 -23 28 0 18
63 -15 95 -37 36 -42 100 -10 128 23 19 27 76 8 95 -12 12 -62 15 -85 5z m65
-50 c-3 -32 -44 -46 -54 -19 -10 26 4 46 31 46 23 0 26 -4 23 -27z"/>
<path d="M3276 3395 c-13 -34 -6 -75 14 -87 29 -18 25 -50 -10 -83 -16 -16
-30 -39 -30 -52 0 -31 16 -29 34 5 8 15 23 36 35 46 12 11 21 31 21 45 0 16 8
31 21 39 16 10 19 21 17 55 l-3 42 -46 3 c-36 2 -48 -1 -53 -13z m79 -25 c9
-27 -1 -40 -31 -40 -20 0 -24 5 -24 30 0 25 4 30 24 30 16 0 27 -7 31 -20z"/>
<path d="M3165 3328 c-3 -8 -4 -88 -3 -178 3 -149 5 -165 21 -168 16 -3 17 9
15 174 -2 131 -6 178 -15 182 -7 2 -15 -3 -18 -10z"/>
<path d="M5132 3288 c-7 -7 -12 -20 -12 -29 0 -9 -7 -22 -15 -29 -13 -11 -22
-9 -50 6 l-35 18 -35 -34 c-38 -37 -42 -55 -20 -84 19 -25 3 -54 -32 -58 -27
-3 -28 -6 -31 -60 l-3 -58 31 0 c37 0 57 -35 34 -61 -22 -24 -17 -53 14 -82
32 -31 58 -34 83 -11 24 21 57 3 61 -33 3 -27 5 -28 63 -28 56 0 60 1 63 25 5
40 30 53 63 33 34 -20 68 -8 95 33 17 25 17 28 1 56 -21 37 -9 65 30 70 27 3
28 5 28 58 0 53 -1 55 -29 60 -40 7 -55 33 -33 58 25 27 21 44 -18 82 l-35 34
-33 -17 c-39 -21 -67 -14 -67 17 0 33 -19 46 -65 46 -23 0 -46 -5 -53 -12z
m90 -55 c11 -42 59 -61 96 -37 23 15 26 15 45 -5 17 -16 19 -23 9 -33 -31 -31
0 -108 44 -108 21 0 24 -5 24 -35 0 -32 -2 -35 -30 -35 -45 0 -66 -55 -38
-100 10 -15 9 -22 -6 -39 -17 -19 -20 -19 -42 -4 -41 27 -104 1 -104 -43 0
-21 -5 -24 -35 -24 -30 0 -35 3 -35 24 0 44 -63 70 -104 43 -22 -15 -25 -14
-45 7 -19 20 -20 24 -6 36 18 15 19 40 3 75 -8 18 -19 25 -40 25 -25 0 -28 3
-28 35 0 30 3 35 24 35 46 0 71 65 42 106 -13 17 -12 21 1 37 20 21 31 21 54
1 17 -15 21 -15 56 2 29 14 39 26 41 47 3 25 7 28 35 25 25 -2 32 -9 39 -35z"/>
<path d="M5148 3082 c-28 -15 -33 -23 -36 -58 -3 -35 1 -45 24 -63 34 -27 64
-27 98 0 45 35 32 108 -23 127 -23 8 -37 7 -63 -6z m60 -28 c25 -17 29 -56 8
-74 -21 -16 -56 -9 -73 16 -12 18 -11 24 8 47 24 31 27 32 57 11z"/>
<path d="M1595 3248 c-23 -20 -29 -35 -33 -82 -3 -43 -11 -64 -28 -81 -22 -22
-24 -33 -24 -110 0 -121 5 -125 155 -125 151 0 155 4 155 129 0 82 -2 91 -23
108 -18 14 -25 32 -30 77 -7 75 -28 97 -94 103 -42 4 -54 1 -78 -19z m124 -34
c14 -18 21 -41 21 -70 l0 -44 -75 0 -75 0 0 47 c0 34 6 53 22 70 30 33 80 31
107 -3z m69 -227 c2 -50 -1 -84 -9 -93 -15 -18 -209 -20 -227 -2 -13 13 -17
134 -6 162 5 14 23 16 123 14 l116 -3 3 -78z"/>
<path d="M1114 3176 c-17 -8 -34 -21 -38 -31 -3 -9 -6 -110 -6 -225 l0 -209
26 -20 c15 -12 41 -21 61 -21 27 0 52 -15 128 -75 51 -41 99 -75 106 -75 10 0
8 62 -4 135 -1 6 41 11 111 13 90 2 112 5 112 17 0 12 -23 15 -131 15 l-131 0
7 -62 c6 -52 5 -61 -6 -52 -8 6 -44 34 -80 62 -56 43 -74 52 -108 52 -30 0
-43 5 -51 19 -6 12 -10 99 -10 215 0 190 1 195 22 210 14 10 44 16 75 16 40 0
53 4 53 15 0 20 -92 20 -136 1z"/>
<path d="M1350 3170 c0 -6 33 -10 80 -10 47 0 80 4 80 10 0 6 -33 10 -80 10
-47 0 -80 -4 -80 -10z"/>
<path d="M3085 3078 c-9 -24 -2 -93 10 -93 14 0 19 85 6 98 -7 7 -12 5 -16 -5z"/>
<path d="M3250 3035 c0 -41 3 -56 13 -52 7 2 12 22 12 52 0 30 -5 50 -12 53
-10 3 -13 -12 -13 -53z"/>
<path d="M5528 3035 c-15 -15 4 -25 47 -25 34 0 47 -5 55 -19 6 -12 10 -118
10 -276 0 -158 -4 -264 -10 -276 -10 -18 -25 -19 -388 -19 -281 0 -381 3 -390
12 -17 17 -17 319 0 336 7 7 29 12 50 12 41 0 51 15 18 25 -28 9 -88 -12 -100
-35 -6 -10 -10 -88 -10 -172 0 -123 3 -158 16 -176 l15 -22 394 0 c393 0 394
0 415 22 19 21 20 34 20 294 0 315 1 313 -86 321 -27 3 -52 2 -56 -2z"/>
<path d="M1718 2758 c-3 -35 -4 -65 -2 -67 2 -2 10 2 19 9 20 17 21 120 1 120
-10 0 -15 -18 -18 -62z"/>
<path d="M5384 2745 c-13 -20 -19 -23 -36 -14 -29 15 -61 -16 -54 -52 4 -21 1
-28 -14 -32 -28 -7 -28 -67 -1 -74 16 -4 18 -11 14 -39 -5 -29 -2 -35 20 -45
20 -9 30 -9 40 0 12 9 18 6 31 -14 23 -35 63 -34 77 2 7 20 13 23 21 15 30
-30 87 12 68 49 -13 24 -13 26 10 32 28 7 28 67 1 74 -16 4 -18 11 -14 38 4
27 1 35 -16 45 -17 9 -26 9 -36 0 -16 -13 -35 -5 -35 15 0 13 -21 25 -46 25
-7 0 -21 -11 -30 -25z m60 -20 c12 -19 24 -25 44 -23 23 3 27 -1 30 -27 2 -16
13 -38 25 -47 l22 -17 -28 -25 c-22 -20 -26 -31 -21 -52 6 -25 5 -26 -24 -19
-26 5 -33 2 -47 -19 -22 -33 -26 -32 -47 4 -16 28 -58 43 -58 20 0 -5 -4 -10
-9 -10 -6 0 -7 16 -4 35 5 30 2 36 -21 45 -33 12 -33 28 0 40 21 8 25 15 22
43 -3 31 -2 32 29 29 27 -3 35 1 44 22 15 32 22 33 43 1z"/>
<path d="M5398 2649 c-22 -13 -24 -62 -2 -79 11 -10 23 -11 42 -4 36 13 42 56
10 78 -26 19 -27 19 -50 5z m40 -42 c2 -10 -3 -17 -12 -17 -18 0 -29 16 -21
31 9 14 29 6 33 -14z"/>
<path d="M5165 2610 c-19 -8 -19 -9 3 -9 12 -1 22 4 22 9 0 6 -1 10 -2 9 -2 0
-12 -4 -23 -9z"/>
<path d="M4958 2603 c23 -2 59 -2 80 0 20 2 1 4 -43 4 -44 0 -61 -2 -37 -4z"/>
<path d="M4938 2553 c12 -2 32 -2 45 0 12 2 2 4 -23 4 -25 0 -35 -2 -22 -4z"/>
<path d="M5108 2553 c18 -2 45 -2 60 0 15 2 0 4 -33 4 -33 0 -45 -2 -27 -4z"/>
<path d="M244 1538 c-93 -111 -94 -279 -2 -383 58 -65 98 -58 43 7 -93 110
-96 244 -10 346 19 22 35 45 35 51 0 23 -39 10 -66 -21z"/>
<path d="M690 1557 c0 -8 12 -24 26 -38 42 -38 74 -116 74 -179 0 -63 -32
-141 -74 -179 -31 -29 -34 -51 -7 -51 22 0 62 44 94 104 17 33 22 58 22 126 0
91 -15 133 -70 199 -27 31 -65 42 -65 18z"/>
<path d="M5481 1534 c-20 -26 -21 -37 -21 -421 l0 -395 30 -29 30 -30 209 3
c258 4 246 -3 246 135 0 68 -4 97 -12 100 -9 3 -13 -10 -13 -46 l0 -51 -160
-2 c-98 -2 -160 -7 -160 -13 0 -6 62 -11 160 -13 160 -2 160 -3 160 -26 0 -51
-20 -56 -232 -56 -176 0 -196 2 -211 18 -10 10 -17 28 -17 40 0 17 7 21 35 24
20 2 35 8 35 13 0 6 -15 11 -35 13 l-35 3 0 354 0 354 22 15 c18 13 57 16 213
16 104 0 197 -5 205 -10 10 -6 17 -32 20 -80 6 -90 24 -96 28 -9 2 54 -1 70
-18 92 l-21 27 -219 0 -219 0 -20 -26z"/>
<path d="M316 1475 c-34 -34 -49 -87 -44 -156 3 -47 10 -66 35 -96 30 -37 63
-55 63 -34 0 6 -13 29 -29 52 -16 22 -33 54 -36 71 -9 41 12 111 41 139 13 12
24 28 24 36 0 21 -27 15 -54 -12z"/>
<path d="M630 1489 c0 -6 13 -26 30 -45 33 -38 45 -87 36 -139 -4 -20 -20 -51
-36 -69 -35 -39 -38 -56 -11 -56 27 0 67 55 82 113 16 57 2 124 -37 174 -24
32 -64 45 -64 22z"/>
<path d="M5680 1440 c0 -5 18 -10 39 -10 22 0 43 5 46 10 4 6 -12 10 -39 10
-25 0 -46 -4 -46 -10z"/>
<path d="M375 1400 c-21 -41 -19 -92 6 -124 35 -45 68 -27 34 18 -8 11 -15 32
-15 46 0 14 7 35 15 46 20 27 18 44 -5 44 -11 0 -26 -12 -35 -30z"/>
<path d="M570 1419 c0 -6 9 -22 20 -36 11 -14 20 -33 20 -43 0 -10 -9 -29 -20
-43 -25 -32 -25 -47 -1 -47 44 0 69 110 35 158 -16 23 -54 31 -54 11z"/>
<path d="M486 1348 c-2 -7 -7 -49 -10 -93 -13 -178 -87 -375 -195 -519 -35
-47 -48 -73 -41 -80 13 -13 60 32 102 97 l31 47 126 0 126 0 44 -59 c52 -72
76 -95 90 -86 17 10 14 16 -45 94 -66 88 -92 137 -132 252 -27 77 -58 227 -64
318 -3 35 -24 54 -32 29z m64 -385 c0 -2 -20 -3 -45 -3 -28 0 -45 5 -45 12 0
9 16 71 37 138 3 11 47 -112 53 -147z m30 -73 c11 -21 20 -42 20 -45 0 -3 -45
-5 -100 -5 -55 0 -100 2 -100 5 0 3 9 24 20 45 20 40 21 40 80 40 59 0 60 0
80 -40z"/>
<path d="M5732 1290 c-14 -24 -16 -120 -2 -120 6 0 10 22 10 48 0 26 5 53 12
60 7 7 34 12 60 12 26 0 48 5 48 10 0 6 -26 10 -58 10 -46 0 -60 -4 -70 -20z"/>
<path d="M5920 1300 c0 -6 43 -10 108 -10 59 0 113 -4 120 -8 9 -7 12 -42 10
-143 l-3 -134 -125 -5 c-115 -5 -129 -7 -172 -33 l-48 -29 6 31 c6 29 5 31
-24 31 -38 0 -52 22 -52 79 0 23 -5 41 -10 41 -7 0 -10 -24 -8 -62 3 -59 5
-64 33 -78 25 -13 30 -20 27 -47 -4 -42 8 -42 80 1 54 33 60 34 176 38 82 2
124 7 135 17 14 11 17 35 17 148 0 74 -5 143 -10 154 -10 17 -22 19 -135 19
-77 0 -125 -4 -125 -10z"/>
<path d="M5884 1159 c-8 -14 11 -33 25 -25 11 7 4 36 -9 36 -5 0 -12 -5 -16
-11z"/>
<path d="M5930 1150 c0 -15 5 -20 18 -18 9 2 17 10 17 18 0 8 -8 16 -17 18
-13 2 -18 -3 -18 -18z"/>
<path d="M5985 1160 c-7 -12 2 -30 16 -30 12 0 12 27 0 35 -5 3 -12 1 -16 -5z"/>
<path d="M2566 949 c-24 -19 -26 -26 -26 -102 0 -63 3 -78 12 -69 7 7 32 12
56 12 101 0 142 122 55 168 -32 18 -67 14 -97 -9z m108 -10 c19 -15 26 -30 26
-54 0 -52 -28 -78 -94 -85 l-56 -6 0 63 c0 51 4 66 22 83 28 26 68 26 102 -1z"/>
<path d="M2587 922 c-21 -23 -23 -90 -2 -98 8 -3 30 -1 49 6 42 14 53 45 27
80 -23 32 -52 36 -74 12z m55 -4 c39 -32 25 -74 -27 -80 -28 -3 -30 0 -33 32
-3 24 2 38 14 47 22 16 26 16 46 1z"/>
<path d="M2333 930 c-39 -24 -53 -48 -53 -95 0 -80 51 -125 140 -125 28 0 60
-5 71 -10 18 -10 19 -6 19 89 l0 99 -35 31 c-43 37 -93 41 -142 11z m117 -50
c15 -15 20 -33 20 -70 l0 -50 -50 0 c-59 0 -90 24 -90 68 0 62 77 95 120 52z"/>
<path d="M2530 525 c0 -108 1 -115 20 -115 18 0 20 7 20 83 l1 82 45 -49 45
-49 44 49 44 49 1 -82 c0 -76 2 -83 20 -83 19 0 20 7 20 115 0 113 0 115 -22
115 -15 0 -38 -17 -65 -47 l-43 -48 -41 48 c-28 32 -49 47 -65 47 -24 0 -24 0
-24 -115z"/>
<path d="M2842 628 c-16 -16 -16 -190 0 -206 16 -16 190 -16 206 0 16 16 16
190 0 206 -8 8 -46 12 -103 12 -57 0 -95 -4 -103 -12z m176 -100 l-3 -73 -72
-3 -73 -3 0 76 0 75 75 0 76 0 -3 -72z"/>
<path d="M3666 573 c110 -198 112 -199 177 -86 24 43 55 95 67 116 l22 37 -25
0 c-22 0 -33 -13 -74 -85 -26 -47 -51 -85 -54 -85 -3 0 -27 38 -53 85 -40 71
-52 85 -73 85 l-25 0 38 -67z"/>
<path d="M3970 630 c-23 -14 -27 -162 -6 -195 15 -24 22 -25 104 -25 48 0 93
4 100 8 9 6 12 36 10 113 l-3 104 -95 3 c-52 1 -102 -2 -110 -8z m170 -105 l0
-75 -70 0 -70 0 0 75 0 75 70 0 70 0 0 -75z"/>
<path d="M2628 259 c-13 -7 -18 -23 -18 -57 0 -55 12 -72 52 -72 36 0 37 18 1
22 -26 3 -28 6 -28 48 0 42 2 45 28 48 15 2 27 8 27 13 0 12 -40 11 -62 -2z"/>
<path d="M2720 200 c0 -40 4 -70 10 -70 6 0 10 11 10 25 0 20 5 25 25 25 28 0
48 30 38 57 -9 24 -23 33 -55 33 -28 0 -28 0 -28 -70z m58 22 c3 -17 -2 -22
-17 -22 -16 0 -21 6 -21 26 0 33 33 30 38 -4z"/>
<path d="M3036 257 c-25 -18 -17 -49 17 -65 37 -18 35 -42 -4 -42 -17 0 -28
-4 -24 -10 11 -18 64 -11 75 9 14 27 3 48 -32 60 -36 13 -33 35 5 39 15 2 25
8 22 13 -9 13 -38 11 -59 -4z"/>
<path d="M3187 263 c-11 -10 -8 -133 3 -133 6 0 10 11 10 24 0 21 6 25 33 28
27 3 32 7 35 33 3 19 -2 33 -14 42 -19 14 -56 17 -67 6z m58 -38 c0 -13 -8
-21 -22 -23 -19 -3 -23 1 -23 23 0 22 4 26 23 23 14 -2 22 -10 22 -23z"/>
<path d="M3290 200 c0 -63 2 -70 20 -70 11 0 20 5 20 10 0 6 -4 10 -10 10 -6
0 -10 27 -10 60 0 33 -4 60 -10 60 -6 0 -10 -30 -10 -70z"/>
<path d="M3623 248 c-11 -26 -5 -105 8 -114 5 -3 9 13 9 35 0 30 4 41 15 41
21 0 19 20 -2 20 -17 1 -17 1 0 14 22 17 22 26 -1 26 -11 0 -23 -10 -29 -22z"/>
<path d="M3448 238 c-3 -7 -3 -32 0 -56 4 -45 24 -64 45 -43 8 8 7 11 -6 11
-20 0 -24 56 -5 62 9 3 8 9 -4 21 -20 20 -24 21 -30 5z"/>
<path d="M2830 220 c0 -5 11 -10 25 -10 34 0 31 -13 -6 -27 -45 -17 -36 -47
14 -50 36 -1 37 0 37 36 0 20 -5 42 -12 49 -15 15 -58 16 -58 2z m50 -60 c0
-5 -9 -10 -20 -10 -11 0 -20 5 -20 10 0 6 9 10 20 10 11 0 20 -4 20 -10z"/>
<path d="M2930 220 c0 -5 8 -10 18 -10 33 0 33 -13 1 -27 -43 -18 -36 -48 11
-48 32 0 35 3 38 33 2 18 -2 40 -9 48 -13 16 -59 19 -59 4z m45 -60 c-3 -5
-13 -10 -21 -10 -8 0 -14 5 -14 10 0 6 9 10 21 10 11 0 17 -4 14 -10z"/>
<path d="M3350 220 c0 -5 11 -10 25 -10 34 0 31 -13 -6 -27 -45 -17 -36 -47
14 -50 36 -1 37 0 37 36 0 20 -5 42 -12 49 -15 15 -58 16 -58 2z m50 -60 c0
-5 -9 -10 -20 -10 -11 0 -20 5 -20 10 0 6 9 10 20 10 11 0 20 -4 20 -10z"/>
<path d="M3525 221 c-4 -7 4 -11 19 -11 34 0 33 -16 0 -24 -19 -5 -25 -12 -22
-29 2 -17 10 -22 36 -24 l33 -1 -3 46 c-3 42 -6 47 -30 50 -14 2 -29 -2 -33
-7z m45 -61 c0 -5 -7 -10 -15 -10 -8 0 -15 5 -15 10 0 6 7 10 15 10 8 0 15 -4
15 -10z"/>
<path d="M3703 223 c-7 -2 -13 -22 -13 -44 0 -33 4 -40 25 -45 32 -8 55 11 55
45 0 42 -28 60 -67 44z m42 -43 c0 -16 -6 -26 -17 -28 -14 -3 -18 3 -18 28 0
25 4 31 18 28 11 -2 17 -12 17 -28z"/>
<path d="M3800 177 c0 -29 4 -46 10 -42 6 3 10 19 10 35 0 16 5 32 10 35 16
10 11 21 -10 21 -17 0 -20 -7 -20 -49z"/>
<path d="M3864 221 c-8 -8 -4 -80 5 -86 6 -3 11 12 13 32 2 27 8 39 21 41 14
3 17 -4 17 -37 0 -51 18 -54 22 -4 4 52 28 56 28 4 0 -23 5 -41 11 -41 6 0 9
19 7 48 l-3 47 -58 0 c-32 0 -60 -1 -63 -4z"/>
</g>
</svg>
