<?xml version="1.0" standalone="no"?>
<!DOCTYPE svg PUBLIC "-//W3C//DTD SVG 20010904//EN"
 "http://www.w3.org/TR/2001/REC-SVG-20010904/DTD/svg10.dtd">
<svg version="1.0" xmlns="http://www.w3.org/2000/svg"
 width="105.000000pt" height="102.000000pt" viewBox="0 0 105.000000 102.000000"
 preserveAspectRatio="xMidYMid meet">

<g transform="translate(0.000000,102.000000) scale(0.100000,-0.100000)"
fill="#000000" stroke="none">
<path d="M389 971 c-127 -41 -239 -133 -294 -242 -138 -270 -2 -599 285 -690
51 -16 102 -22 233 -26 173 -6 210 2 117 26 -87 22 -202 85 -268 146 -106 98
-153 203 -155 346 -1 76 2 92 28 145 55 109 152 149 216 88 38 -36 76 -109 85
-163 6 -40 5 -43 -50 -95 -64 -62 -68 -83 -35 -156 23 -52 68 -102 122 -136
108 -70 250 -21 306 106 111 253 -37 567 -306 650 -83 25 -206 26 -284 1z"/>
</g>
</svg>
