<?xml version="1.0" standalone="no"?>
<!DOCTYPE svg PUBLIC "-//W3C//DTD SVG 20010904//EN"
 "http://www.w3.org/TR/2001/REC-SVG-20010904/DTD/svg10.dtd">
<svg version="1.0" xmlns="http://www.w3.org/2000/svg"
 width="225.000000pt" height="225.000000pt" viewBox="0 0 225.000000 225.000000"
 preserveAspectRatio="xMidYMid meet">

<g transform="translate(0.000000,225.000000) scale(0.100000,-0.100000)"
fill="#000000" stroke="none">
<path d="M989 1891 c-127 -41 -239 -133 -294 -242 -138 -270 -2 -599 285 -690
51 -16 102 -22 233 -26 173 -6 210 2 117 26 -87 22 -202 85 -268 146 -106 98
-153 203 -155 346 -1 76 2 92 28 145 55 109 152 149 216 88 38 -36 76 -109 85
-163 6 -40 5 -43 -50 -95 -64 -62 -68 -83 -35 -156 23 -52 68 -102 122 -136
108 -70 250 -21 306 106 111 253 -37 567 -306 650 -83 25 -206 26 -284 1z"/>
<path d="M2030 705 l0 -225 40 0 40 0 0 225 0 225 -40 0 -40 0 0 -225z"/>
<path d="M188 882 l-38 -15 0 -162 c0 -148 2 -165 20 -188 25 -31 80 -51 120
-42 37 8 43 17 31 48 -7 19 -15 23 -34 20 -43 -8 -57 19 -57 113 l0 84 40 0
c38 0 40 2 40 30 0 28 -2 30 -39 30 l-40 0 -3 48 -3 48 -37 -14z"/>
<path d="M720 675 l0 -195 40 0 40 0 0 195 0 195 -40 0 -40 0 0 -195z"/>
<path d="M1860 675 l0 -195 40 0 40 0 0 195 0 195 -40 0 -40 0 0 -195z"/>
<path d="M440 780 c-49 -25 -73 -71 -74 -139 -1 -68 24 -116 74 -146 46 -26
154 -28 192 -3 24 16 26 21 17 47 l-10 29 -37 -15 c-47 -20 -111 -12 -134 17
-10 12 -18 26 -18 31 0 5 47 9 105 9 l105 0 0 38 c-1 58 -32 116 -73 135 -45
22 -103 21 -147 -3z m122 -67 c35 -32 23 -43 -47 -43 -36 0 -65 4 -65 8 0 5 9
18 20 30 25 26 66 29 92 5z"/>
<path d="M950 782 c-54 -27 -80 -74 -80 -146 0 -99 41 -146 141 -161 44 -6
108 5 138 24 12 8 12 14 2 39 -13 30 -13 30 -47 16 -62 -26 -123 -12 -143 32
l-11 24 105 0 105 0 0 40 c0 119 -105 185 -210 132z m120 -79 l22 -28 -36 -3
c-20 -2 -52 -2 -72 0 l-36 3 22 28 c14 18 31 27 50 27 19 0 36 -9 50 -27z"/>
<path d="M1282 780 c-34 -15 -47 -29 -64 -66 -25 -57 -21 -132 9 -172 39 -52
70 -67 136 -66 77 1 111 16 101 47 -10 34 -16 37 -61 24 -54 -14 -89 1 -109
48 -17 41 -10 80 19 113 22 24 67 29 112 12 23 -9 27 -7 35 16 14 35 14 33
-25 50 -47 19 -102 17 -153 -6z"/>
<path d="M1573 789 c-34 -10 -37 -17 -27 -57 7 -24 9 -24 91 -5 21 5 63 -26
63 -46 0 -5 -30 -11 -66 -13 -58 -4 -70 -8 -90 -32 -28 -32 -32 -90 -9 -123
31 -44 116 -53 158 -16 15 15 17 15 17 0 0 -13 9 -17 35 -17 l35 0 0 119 c0
105 -2 121 -21 145 -41 52 -107 68 -186 45z m127 -197 c0 -34 -32 -55 -76 -50
-21 2 -30 9 -32 26 -5 35 15 52 64 52 42 0 44 -2 44 -28z"/>
</g>
</svg>
